<?xml version="1.0" standalone="no"?><!-- Generator: Gravit.io --><svg xmlns="http://www.w3.org/2000/svg" xmlns:xlink="http://www.w3.org/1999/xlink" style="isolation:isolate" viewBox="423.03 318.936 219.272 116.567" width="219.272" height="116.567"><defs><clipPath id="_clipPath_XemCCbTi6oeYppnCcQfBvgbKQsfSOPDd"><rect x="423.03" y="318.936" width="219.272" height="116.567"/></clipPath></defs><g clip-path="url(#_clipPath_XemCCbTi6oeYppnCcQfBvgbKQsfSOPDd)"><path d=" M 463.557 401.811 L 461.889 408.035 L 423.53 408.035 L 424.991 402.583 L 464.886 361.376 L 437.817 361.376 L 439.485 355.152 L 475.335 355.152 L 473.668 361.376 L 434.365 401.811 L 463.557 401.811 Z  M 526.855 372.667 L 526.855 372.667 L 526.855 372.667 Q 521.955 390.954 513.771 399.977 L 513.771 399.977 L 513.771 399.977 Q 505.587 409 493.717 409 L 493.717 409 L 493.717 409 Q 482.33 409 478.871 399.76 L 478.871 399.76 L 478.871 399.76 Q 475.412 390.52 480.196 372.667 L 480.196 372.667 L 480.196 372.667 Q 485.135 354.235 493.268 345.309 L 493.268 345.309 L 493.268 345.309 Q 501.402 336.382 513.175 336.382 L 513.175 336.382 L 513.175 336.382 Q 524.659 336.382 528.123 345.695 L 528.123 345.695 L 528.123 345.695 Q 531.587 355.007 526.855 372.667 Z  M 488.302 372.667 L 488.302 372.667 L 488.302 372.667 Q 484.178 388.059 485.915 395.08 L 485.915 395.08 L 485.915 395.08 Q 487.653 402.1 495.566 402.1 L 495.566 402.1 L 495.566 402.1 Q 503.576 402.1 509.078 394.983 L 509.078 394.983 L 509.078 394.983 Q 514.579 387.866 518.652 372.667 L 518.652 372.667 L 518.652 372.667 Q 522.724 357.468 521.024 350.399 L 521.024 350.399 L 521.024 350.399 Q 519.323 343.33 511.314 343.33 L 511.314 343.33 L 511.314 343.33 Q 503.4 343.33 497.913 350.303 L 497.913 350.303 L 497.913 350.303 Q 492.426 357.275 488.302 372.667 Z  M 583.356 372.667 L 583.356 372.667 L 583.356 372.667 Q 578.456 390.954 570.273 399.977 L 570.273 399.977 L 570.273 399.977 Q 562.089 409 550.219 409 L 550.219 409 L 550.219 409 Q 538.832 409 535.373 399.76 L 535.373 399.76 L 535.373 399.76 Q 531.914 390.52 536.698 372.667 L 536.698 372.667 L 536.698 372.667 Q 541.637 354.235 549.77 345.309 L 549.77 345.309 L 549.77 345.309 Q 557.904 336.382 569.677 336.382 L 569.677 336.382 L 569.677 336.382 Q 581.161 336.382 584.625 345.695 L 584.625 345.695 L 584.625 345.695 Q 588.088 355.007 583.356 372.667 Z  M 544.804 372.667 L 544.804 372.667 L 544.804 372.667 Q 540.68 388.059 542.417 395.08 L 542.417 395.08 L 542.417 395.08 Q 544.155 402.1 552.068 402.1 L 552.068 402.1 L 552.068 402.1 Q 560.078 402.1 565.58 394.983 L 565.58 394.983 L 565.58 394.983 Q 571.081 387.866 575.154 372.667 L 575.154 372.667 L 575.154 372.667 Q 579.226 357.468 577.526 350.399 L 577.526 350.399 L 577.526 350.399 Q 575.825 343.33 567.815 343.33 L 567.815 343.33 L 567.815 343.33 Q 559.902 343.33 554.415 350.303 L 554.415 350.303 L 554.415 350.303 Q 548.928 357.275 544.804 372.667 Z  M 580.683 408.035 L 607.285 380.966 L 595.818 355.152 L 604.937 355.152 L 613.452 375.417 L 632.778 355.152 L 641.801 355.152 L 616.501 380.966 L 628.596 408.035 L 619.525 408.035 L 610.452 386.612 L 589.754 408.035 L 580.683 408.035 Z " fill="none" vector-effect="non-scaling-stroke" stroke-width="1" stroke="rgb(0,0,0)" stroke-linejoin="miter" stroke-linecap="square" stroke-miterlimit="3"/><ellipse vector-effect="non-scaling-stroke" cx="496" cy="390.0397996315896" rx="5" ry="5.039799631589631" fill="rgb(0,0,0)"/><ellipse vector-effect="non-scaling-stroke" cx="552.0681581831434" cy="390.0397996315896" rx="5" ry="5.039799631589631" fill="rgb(0,0,0)"/><path d=" M 542.417 421 Q 524.964 428.159 514.857 428 Q 504.749 427.841 489.002 421" fill="none" vector-effect="non-scaling-stroke" stroke-width="5" stroke="rgb(139,139,139)" stroke-linejoin="miter" stroke-linecap="square" stroke-miterlimit="3"/><path d=" M 501 329.732 Q 512.22 324.091 518.115 325.086 Q 524.009 326.08 532.268 334.159" fill="none" vector-effect="non-scaling-stroke" stroke-width="4" stroke="rgb(139,139,139)" stroke-linejoin="miter" stroke-linecap="square" stroke-miterlimit="3"/><path d=" M 559.52 331.955 Q 570.74 326.314 576.635 327.308 Q 582.529 328.303 590.788 336.382" fill="none" vector-effect="non-scaling-stroke" stroke-width="4" stroke="rgb(139,139,139)" stroke-linejoin="miter" stroke-linecap="square" stroke-miterlimit="3"/></g></svg>